<svg width="20" height="24" viewBox="0 0 20 24" fill="none" xmlns="http://www.w3.org/2000/svg">
<path d="M18.483 0.578L19.192 0.331V13.194L18.836 13.319L18.8341 13.3197C18.7243 13.3572 16.7176 14.043 13.506 14.043C11.847 14.043 10.318 13.718 8.839 13.402L8.83553 13.4013C7.38581 13.0925 6.01683 12.801 4.553 12.801C2.531 12.801 1.49 13.096 1.066 13.262V23.458H0V0.911L0.23 0.752C0.342 0.675 1.408 0 4.554 0C6.12838 0 7.61604 0.316943 9.05481 0.623468L9.062 0.625L9.06668 0.625995C10.4892 0.928687 11.9617 1.242 13.507 1.242C16.544 1.242 18.464 0.584 18.483 0.578Z" fill="#59636E"/>
</svg>
